<?xml version="1.0" encoding="UTF-8" standalone="no"?>
<svg
   width="320"
   height="150"
   viewBox="0 0 320 150"
   version="1.1"
   xml:space="preserve"
   style="clip-rule:evenodd;fill-rule:evenodd;stroke-linecap:round;stroke-linejoin:round;stroke-miterlimit:1.5"
   id="svg10"
   sodipodi:docname="repo4cat-logo-dark-mode.svg"
   inkscape:version="1.4 (86a8ad7, 2024-10-11)"
   xmlns:inkscape="http://www.inkscape.org/namespaces/inkscape"
   xmlns:sodipodi="http://sodipodi.sourceforge.net/DTD/sodipodi-0.dtd"
   xmlns="http://www.w3.org/2000/svg"
   xmlns:svg="http://www.w3.org/2000/svg"><defs
   id="defs1" /><sodipodi:namedview
   id="namedview1"
   pagecolor="#ffffff"
   bordercolor="#666666"
   borderopacity="1.0"
   inkscape:showpageshadow="2"
   inkscape:pageopacity="0.0"
   inkscape:pagecheckerboard="0"
   inkscape:deskcolor="#d1d1d1"
   inkscape:zoom="4.012831"
   inkscape:cx="69.900776"
   inkscape:cy="-5.1086129"
   inkscape:window-width="1920"
   inkscape:window-height="1137"
   inkscape:window-x="-8"
   inkscape:window-y="-8"
   inkscape:window-maximized="1"
   inkscape:current-layer="svg10" />
    <g
   transform="matrix(0.09417411,0,0,0.09417411,-11.561407,-32.165331)"
   id="g5">
        <path
   d="m 2108.11,936.409 h 107.01 l -203.77,449.351 h 209.3 l 9.62,-235.02 91.82,-12.64 v 252.72 l 54.15,-5.06 v 105.42 l -54.15,-5.45 v 202.92 l -101.44,18.43 v -215.9 h -325.11 v -105.42 z"
   style="fill:#91c63f;stroke:#000000;stroke-width:1px"
   id="path4" />
    </g><g
   transform="matrix(0.09417411,0,0,0.09417411,-10.496582,-26.214509)"
   id="g6">
        <path
   d="m 3404.89,1629.33 c -101.63,92.95 -229.51,148.37 -368.36,148.37 -330.61,0 -599.02,-314.19 -599.02,-701.18 0,-386.997 268.41,-701.187 599.02,-701.187 128.21,0 247.06,47.245 344.53,127.658 l -35.85,38.384 -15.05,15.738 c -76.38,-52.131 -165.3,-82.03 -260.19,-82.03 -115.72,0 -222.04,20.127 -308.08,95.169 -125.36,109.326 -207.07,307.88 -207.07,503.958 0,185.38 69.29,386.25 183.14,496.19 89.23,86.16 207.09,102.94 332.01,102.94 105.98,0 204.52,-37.3 286.45,-101.21 l 11.39,13.45 36.51,43.3 -36.51,-43.3 z"
   style="fill:#3590ff"
   id="path5" />
    </g><g
   transform="matrix(1.9549415,0,0,2.016409,-1019.1388,-4233.6398)"
   id="g8">
        <g
   transform="matrix(50,0,0,50,642.585,2152.89)"
   id="g7">
            <path
   d="M 0.361,-0.06 C 0.324,-0.014 0.267,0.01 0.191,0.01 0.15,0.01 0.114,-0.005 0.084,-0.035 0.054,-0.065 0.039,-0.102 0.039,-0.146 c 0,-0.053 0.023,-0.098 0.07,-0.135 0.046,-0.036 0.105,-0.054 0.177,-0.054 0.02,0 0.042,0.004 0.067,0.012 0,-0.084 -0.038,-0.127 -0.114,-0.127 -0.058,0 -0.102,0.016 -0.134,0.047 L 0.066,-0.48 c 0.018,-0.015 0.042,-0.027 0.073,-0.037 0.031,-0.011 0.061,-0.016 0.09,-0.016 0.075,0 0.13,0.018 0.165,0.052 0.034,0.035 0.051,0.089 0.051,0.165 v 0.187 c 0,0.046 0.014,0.077 0.041,0.092 V 0.009 C 0.449,0.009 0.42,0.004 0.402,-0.007 0.383,-0.018 0.369,-0.035 0.361,-0.06 Z M 0.353,-0.257 c -0.03,-0.006 -0.05,-0.01 -0.062,-0.01 -0.047,0 -0.085,0.012 -0.115,0.037 -0.029,0.024 -0.044,0.052 -0.044,0.085 0,0.054 0.032,0.082 0.096,0.082 0.047,0 0.088,-0.023 0.125,-0.067 z"
   style="fill:#3590ff"
   id="path6" />
        </g>
    </g><g
   transform="matrix(1.8461233,0,0,2.0535606,-904.46394,-4312.9155)"
   id="g10">
        <g
   transform="matrix(50,0,0,50,642.585,2152.89)"
   id="g9">
            <path
   d="m 0.099,-0.45 h -0.06 v -0.073 h 0.06 v -0.109 l 0.093,-0.036 v 0.145 H 0.335 V -0.45 H 0.192 v 0.26 c 0,0.044 0.007,0.075 0.022,0.094 0.015,0.018 0.039,0.028 0.072,0.028 0.023,0 0.048,-0.006 0.073,-0.018 l 0.014,0.081 C 0.335,0.005 0.292,0.01 0.247,0.01 0.205,0.01 0.17,-0.006 0.142,-0.036 0.113,-0.067 0.099,-0.106 0.099,-0.153 Z"
   style="fill:#3590ff"
   id="path8" />
        </g>
    </g>
<path
   style="font-weight:bold;font-size:93.3333px;line-height:1.25;font-family:Candara;-inkscape-font-specification:'Candara, Bold';clip-rule:evenodd;fill:#cccccc;fill-rule:evenodd;stroke-width:0.795604;stroke-linecap:round;stroke-linejoin:round;stroke-miterlimit:1.5"
   d="m 45.490346,107.21736 h -11.14365 q -4.3671,-19.529051 -6.70124,-24.107901 -2.334144,-4.57884 -7.529491,-4.57884 -2.183552,0 -4.178866,0.0552 0,14.17787 0.338826,28.631571 H 5.8099356 q 0.489417,-16.660371 0.489417,-37.568591 0,-20.080721 -0.489417,-34.258589 h 6.5130084 q 1.129424,0 4.70593,-0.165501 3.614155,-0.16554 6.663598,-0.16554 17.280174,0 17.280174,17.32238 0,13.73653 -9.86363,19.14288 v 0.8275 q 3.80239,1.54467 6.6636,8.71636 2.86121,7.11651 7.71773,26.149061 z m -14.1178,-50.753461 q 0,-10.978197 -9.637742,-10.978197 -3.538859,0 -6.249475,0.772335 0.414122,8.550852 0.414122,22.287392 2.070609,0.11034 3.501212,0.11034 11.971883,0 11.971883,-12.19187 z"
   id="path2-5" /><path
   style="font-weight:bold;font-size:84.8647px;line-height:1.25;font-family:Candara;-inkscape-font-specification:'Candara, Bold';clip-rule:evenodd;fill:#cccccc;fill-rule:evenodd;stroke-width:0.795604;stroke-linecap:round;stroke-linejoin:round;stroke-miterlimit:1.5"
   d="m 79.865456,78.274319 q 0,2.55822 -0.20539,6.67144 l -22.04509,0.55178 q 0.47925,5.66822 3.32046,9.43031 2.84121,3.7621 7.46247,3.7621 5.13472,0 10.91985,-2.25726 l -0.68463,9.731281 q -4.72395,2.50806 -11.70718,2.50806 -8.83172,0 -13.55567,-7.27338 -4.68972,-7.273381 -4.68972,-17.506271 0,-10.68435 4.4501,-18.5095 4.48432,-7.87532 12.42603,-7.87532 7.25708,0 10.78293,5.76855 3.52584,5.76854 3.52584,14.99821 z m -8.01017,-0.45145 q 0,-11.53709 -6.70937,-11.53709 -6.4013,0 -7.5994,11.93838 z m 47.205244,3.51128 q 0,10.885 -4.24471,19.111441 -4.2447,8.22644 -11.60448,8.22644 -5.477044,0 -7.530934,-3.41096 h -0.41078 q 0,12.2895 0.23963,24.87998 h -9.31098 q 0.61617,-14.39628 0.61617,-33.206751 0,-24.27804 -1.78003,-37.019 l 8.76326,-1.40451 0.51347,4.31387 h 0.54771 q 3.66277,-4.96597 9.961364,-4.96597 6.57245,0 10.40638,6.97242 3.83393,6.92225 3.83393,16.50304 z m -9.10559,1.3042 q 0,-6.32032 -2.15658,-10.88499 -2.15658,-4.56468 -5.95628,-4.56468 -4.723954,0 -6.914764,4.06306 0.51347,14.09532 0.51347,25.83305 2.15658,2.4579 5.579744,2.4579 4.55278,0 6.7436,-4.9158 2.19081,-4.96597 2.19081,-11.98854 z m 48.30066,-0.35113 q 0,12.64063 -5.30589,19.763531 -5.30589,7.12289 -12.4945,7.12289 -6.8463,0 -11.7414,-6.4708 -4.89511,-6.520961 -4.89511,-18.308851 0,-12.69079 5.34012,-19.86385 5.34011,-7.17306 12.52873,-7.17306 6.81206,0 11.67293,6.57112 4.89512,6.52097 4.89512,18.35902 z m -8.93443,1.50484 q 0,-7.27338 -2.32774,-12.18919 -2.32775,-4.96596 -6.05898,-4.96596 -3.62853,0 -5.92205,4.61484 -2.25928,4.61483 -2.25928,11.53708 0,7.27338 2.32775,12.23934 2.32774,4.91581 6.05897,4.91581 3.62854,0 5.88782,-4.61484 2.29351,-4.61483 2.29351,-11.53708 z"
   id="path3-1" /></svg>
