<?xml version="1.0" encoding="UTF-8" standalone="no"?>
<svg
   width="320"
   height="150"
   viewBox="0 0 320 150"
   version="1.1"
   xml:space="preserve"
   style="clip-rule:evenodd;fill-rule:evenodd;stroke-linecap:round;stroke-linejoin:round;stroke-miterlimit:1.5"
   id="svg10"
   sodipodi:docname="repo4cat.svg"
   inkscape:version="1.4 (86a8ad7, 2024-10-11)"
   xmlns:inkscape="http://www.inkscape.org/namespaces/inkscape"
   xmlns:sodipodi="http://sodipodi.sourceforge.net/DTD/sodipodi-0.dtd"
   xmlns="http://www.w3.org/2000/svg"
   xmlns:svg="http://www.w3.org/2000/svg"><path
   style="font-weight:bold;font-size:93.3333px;line-height:1.25;font-family:Candara;-inkscape-font-specification:'Candara, Bold';stroke-width:0.795604"
   d="M 49.049734,107.02754 H 37.906091 q -4.367104,-19.529053 -6.701245,-24.107899 -2.334141,-4.578845 -7.529488,-4.578845 -2.183552,0 -4.178866,0.05516 0,14.177869 0.338826,28.631571 H 9.3693294 q 0.489417,-16.660374 0.489417,-37.568594 0,-20.080717 -0.489417,-34.258585 h 6.5130076 q 1.129424,0 4.70593,-0.165501 3.614155,-0.1655 6.663598,-0.1655 17.280176,0 17.280176,17.322377 0,13.736534 -9.86363,19.142881 v 0.827503 q 3.802391,1.54467 6.663598,8.716355 2.861205,7.116518 7.717725,26.149064 z M 34.931943,56.274075 q 0,-10.978195 -9.637746,-10.978195 -3.538859,0 -6.249475,0.772335 0.414122,8.550855 0.414122,22.287389 2.070609,0.110339 3.501212,0.110339 11.971887,0 11.971887,-12.191864 z"
   id="path2" /><path
   style="font-weight:bold;font-size:84.8647px;line-height:1.25;font-family:Candara;-inkscape-font-specification:'Candara, Bold';stroke-width:0.795604"
   d="m 83.424854,78.084497 q 0,2.558223 -0.205392,6.671445 l -22.045088,0.551774 q 0.479241,5.66822 3.320456,9.430315 2.841214,3.762093 7.462467,3.762093 5.134725,0 10.919849,-2.257256 l -0.68463,9.731282 q -4.723947,2.50806 -11.707174,2.50806 -8.831727,0 -13.555674,-7.27338 -4.689716,-7.27338 -4.689716,-17.506274 0,-10.684345 4.450095,-18.509499 4.484327,-7.875316 12.426036,-7.875316 7.257078,0 10.782922,5.768543 3.525849,5.768543 3.525849,14.998213 z m -8.010175,-0.451452 q 0,-11.537086 -6.709374,-11.537086 -6.401292,0 -7.599394,11.938376 z m 47.205241,3.511287 q 0,10.884991 -4.24471,19.111438 -4.2447,8.22644 -11.60448,8.22644 -5.47704,0 -7.530933,-3.41096 h -0.410775 q 0,12.2895 0.239625,24.87998 h -9.310974 q 0.616166,-14.39628 0.616166,-33.20675 0,-24.278042 -1.780032,-37.018999 l 8.763258,-1.404515 0.513475,4.313868 h 0.547707 q 3.662773,-4.965965 9.961363,-4.965965 6.57245,0 10.40638,6.972414 3.83393,6.922252 3.83393,16.503049 z m -9.10559,1.304193 q 0,-6.320317 -2.15658,-10.88499 -2.15658,-4.564673 -5.95628,-4.564673 -4.72395,0 -6.914764,4.06306 0.513474,14.095311 0.513474,25.833042 2.15658,2.457901 5.57974,2.457901 4.55278,0 6.7436,-4.915802 2.19081,-4.965964 2.19081,-11.988538 z m 48.30066,-0.351129 q 0,12.640635 -5.30589,19.763534 -5.30589,7.12289 -12.4945,7.12289 -6.8463,0 -11.7414,-6.4708 -4.89511,-6.520958 -4.89511,-18.308851 0,-12.690795 5.34012,-19.863854 5.34011,-7.173057 12.52873,-7.173057 6.81206,0 11.67293,6.571122 4.89512,6.520963 4.89512,18.359016 z m -8.93443,1.504838 q 0,-7.27338 -2.32774,-12.189183 -2.32775,-4.965963 -6.05898,-4.965963 -3.62853,0 -5.92205,4.614834 -2.25928,4.614835 -2.25928,11.537087 0,7.27338 2.32775,12.239343 2.32774,4.915803 6.05897,4.915803 3.62854,0 5.88782,-4.614835 2.29351,-4.614834 2.29351,-11.537086 z"
   id="path3" /><defs
   id="defs1" /><sodipodi:namedview
   id="namedview1"
   pagecolor="#ffffff"
   bordercolor="#666666"
   borderopacity="1.0"
   inkscape:showpageshadow="2"
   inkscape:pageopacity="0.0"
   inkscape:pagecheckerboard="0"
   inkscape:deskcolor="#d1d1d1"
   inkscape:zoom="2.8375"
   inkscape:cx="136.56388"
   inkscape:cy="16.387665"
   inkscape:window-width="1920"
   inkscape:window-height="1137"
   inkscape:window-x="-8"
   inkscape:window-y="-8"
   inkscape:window-maximized="1"
   inkscape:current-layer="svg10" />
    <g
   transform="matrix(0.09417411,0,0,0.09417411,-11.561407,-32.165331)"
   id="g5">
        <path
   d="m 2108.11,936.409 h 107.01 l -203.77,449.351 h 209.3 l 9.62,-235.02 91.82,-12.64 v 252.72 l 54.15,-5.06 v 105.42 l -54.15,-5.45 v 202.92 l -101.44,18.43 v -215.9 h -325.11 v -105.42 z"
   style="fill:#91c63f;stroke:#000000;stroke-width:1px"
   id="path4" />
    </g><g
   transform="matrix(0.09417411,0,0,0.09417411,-10.496582,-26.214509)"
   id="g6">
        <path
   d="m 3404.89,1629.33 c -101.63,92.95 -229.51,148.37 -368.36,148.37 -330.61,0 -599.02,-314.19 -599.02,-701.18 0,-386.997 268.41,-701.187 599.02,-701.187 128.21,0 247.06,47.245 344.53,127.658 l -35.85,38.384 -15.05,15.738 c -76.38,-52.131 -165.3,-82.03 -260.19,-82.03 -115.72,0 -222.04,20.127 -308.08,95.169 -125.36,109.326 -207.07,307.88 -207.07,503.958 0,185.38 69.29,386.25 183.14,496.19 89.23,86.16 207.09,102.94 332.01,102.94 105.98,0 204.52,-37.3 286.45,-101.21 l 11.39,13.45 36.51,43.3 -36.51,-43.3 z"
   style="fill:#016992"
   id="path5" />
    </g><g
   transform="matrix(1.9549415,0,0,2.016409,-1019.1388,-4233.6398)"
   id="g8">
        <g
   transform="matrix(50,0,0,50,642.585,2152.89)"
   id="g7">
            <path
   d="M 0.361,-0.06 C 0.324,-0.014 0.267,0.01 0.191,0.01 0.15,0.01 0.114,-0.005 0.084,-0.035 0.054,-0.065 0.039,-0.102 0.039,-0.146 c 0,-0.053 0.023,-0.098 0.07,-0.135 0.046,-0.036 0.105,-0.054 0.177,-0.054 0.02,0 0.042,0.004 0.067,0.012 0,-0.084 -0.038,-0.127 -0.114,-0.127 -0.058,0 -0.102,0.016 -0.134,0.047 L 0.066,-0.48 c 0.018,-0.015 0.042,-0.027 0.073,-0.037 0.031,-0.011 0.061,-0.016 0.09,-0.016 0.075,0 0.13,0.018 0.165,0.052 0.034,0.035 0.051,0.089 0.051,0.165 v 0.187 c 0,0.046 0.014,0.077 0.041,0.092 V 0.009 C 0.449,0.009 0.42,0.004 0.402,-0.007 0.383,-0.018 0.369,-0.035 0.361,-0.06 Z M 0.353,-0.257 c -0.03,-0.006 -0.05,-0.01 -0.062,-0.01 -0.047,0 -0.085,0.012 -0.115,0.037 -0.029,0.024 -0.044,0.052 -0.044,0.085 0,0.054 0.032,0.082 0.096,0.082 0.047,0 0.088,-0.023 0.125,-0.067 z"
   style="fill:#016992;fill-rule:nonzero"
   id="path6" />
        </g>
    </g><g
   transform="matrix(1.8461233,0,0,2.0535606,-904.46394,-4312.9155)"
   id="g10">
        <g
   transform="matrix(50,0,0,50,642.585,2152.89)"
   id="g9">
            <path
   d="m 0.099,-0.45 h -0.06 v -0.073 h 0.06 v -0.109 l 0.093,-0.036 v 0.145 H 0.335 V -0.45 H 0.192 v 0.26 c 0,0.044 0.007,0.075 0.022,0.094 0.015,0.018 0.039,0.028 0.072,0.028 0.023,0 0.048,-0.006 0.073,-0.018 l 0.014,0.081 C 0.335,0.005 0.292,0.01 0.247,0.01 0.205,0.01 0.17,-0.006 0.142,-0.036 0.113,-0.067 0.099,-0.106 0.099,-0.153 Z"
   style="fill:#006992;fill-rule:nonzero"
   id="path8" />
        </g>
    </g>
</svg>
